<svg width="19" height="19" viewBox="0 0 19 19" fill="none" xmlns="http://www.w3.org/2000/svg">
<path fill-rule="evenodd" clip-rule="evenodd" d="M9.50008 8.69149e-07C4.25402 8.69149e-07 0 4.36075 0 9.74044C0 14.0441 2.72206 17.6953 6.49673 18.9833C6.97152 19.0734 7.14582 18.772 7.14582 18.5147C7.14582 18.2824 7.13702 17.5151 7.13293 16.7012C4.49 17.2904 3.9323 15.5519 3.9323 15.5519C3.50015 14.426 2.87749 14.1267 2.87749 14.1267C2.01555 13.5221 2.94246 13.5345 2.94246 13.5345C3.89644 13.6031 4.39875 14.5383 4.39875 14.5383C5.24606 16.0274 6.62117 15.5969 7.16329 15.348C7.24855 14.7186 7.49475 14.2886 7.76644 14.0455C5.65634 13.7992 3.43817 12.964 3.43817 9.2317C3.43817 8.16824 3.80928 7.29932 4.417 6.61718C4.31836 6.37168 3.99319 5.38114 4.50903 4.03944C4.50903 4.03944 5.30679 3.77765 7.12223 5.03789C7.88002 4.82207 8.69273 4.71384 9.50008 4.71013C10.3074 4.71384 11.1208 4.82207 11.88 5.03789C13.6932 3.77765 14.4899 4.03944 14.4899 4.03944C15.007 5.38114 14.6816 6.37168 14.583 6.61718C15.1921 7.29932 15.5607 8.16824 15.5607 9.2317C15.5607 12.9729 13.3383 13.7967 11.2229 14.0378C11.5636 14.3401 11.8672 14.9329 11.8672 15.8416C11.8672 17.1448 11.8562 18.1937 11.8562 18.5147C11.8562 18.7739 12.0272 19.0776 12.5088 18.982C16.2814 17.6925 19 14.0426 19 9.74044C19 4.36075 14.7466 8.69149e-07 9.50008 8.69149e-07" fill="white"/>
</svg>
