<svg xmlns="http://www.w3.org/2000/svg" width="226.02" height="168.66" viewBox="0 0 226.02 168.66">
  <g id="b3f2cd29-dc9e-453f-97ce-1065f8e69bc3" data-name="Layer 2">
    <g id="f7f3e082-4b1b-4f29-a60c-98ed3f00ecea" data-name="Layer 1">
      <path d="M225.65,157.7c-2,6.89-9.53,10-17.54,10-35.3-.17-70.6-.09-105.89,0a23.4,23.4,0,0,1-8.8-1.33c-6.21-2.48-9.2-7.6-8-15.46,3.76-24,17.38-40.63,40.09-48.27,26.91-9,53.48-8,77.31,9.53,11.92,8.74,21.38,31.85,22.38,36.31A20.29,20.29,0,0,1,225.65,157.7Zm-70.45-4c17.47,0,34.93-.08,52.4.08,3.62,0,4.55-.82,3.62-4.45-3-11.77-9.28-21.23-19.27-28.09-19.83-13.62-54.5-13.34-74,.69A46.27,46.27,0,0,0,99.6,149.46c-1,4,.33,4.29,3.7,4.26C120.6,153.58,137.9,153.65,155.2,153.65Z" fill="#4E23A7"/>
      <path d="M1.91,143.94c8.58-25.21,26.05-39.38,51.61-44a92.23,92.23,0,0,1,43.31,2.25C71.37,130.72,67,142.86,72.76,168.65q-29.27,0-58.47,0c-7,0-12-2.91-14.16-9.89A35.88,35.88,0,0,1,1.91,143.94Zm67.14-31.41a66.34,66.34,0,0,0-15.23,1.38c-19.66,4.5-33.32,15.56-39,35.54-1.11,3.92-.9,5.58,3.88,5.38,8.63-.36,17.29-.07,26-.12,3.8,0,8.41,1,11.12-.77,1.83-1.2.79-7.06,1.81-12.39C59.3,131.32,63.52,122,69.05,112.53Z" fill="#4E23A7"/>
      <path d="M154.83,84.09c-24,0-42.15-18.41-42.1-42.87,0-22.48,19-41.1,42-41.22s41.93,19.06,42.09,42.37C197,65.16,178,84.07,154.83,84.09Zm-.19-70.16c-15.35,0-28.33,13-28.24,28.24a28.65,28.65,0,0,0,28.29,28.27c15.06,0,28.12-12.81,28.22-27.8A28.44,28.44,0,0,0,154.64,13.93Z" fill="#4E23A7"/>
      <path d="M63,91.13a42,42,0,1,1,.82-84.08c23.31.28,41.63,19.19,41.43,42.78A41.61,41.61,0,0,1,63,91.13ZM35.15,49.07c-.06,15.48,12.7,28.39,28.05,28.37A28.52,28.52,0,0,0,91.61,49.32c.3-15.1-12.91-28.42-28.14-28.38A28.4,28.4,0,0,0,35.15,49.07Z" fill="#4E23A7"/>
    </g>
  </g>
</svg>