<svg width="23" height="23" viewBox="0 0 23 23" fill="none" xmlns="http://www.w3.org/2000/svg">
<path fill-rule="evenodd" clip-rule="evenodd" d="M22.9999 11.5C22.9999 17.8512 17.8512 22.9999 11.5 22.9999C5.14871 22.9999 0 17.8512 0 11.5C0 5.14871 5.14871 0 11.5 0C17.8512 0 22.9999 5.14871 22.9999 11.5ZM12.5303 8.20948C10.5361 9.0404 4.78613 11.4002 4.78613 11.4002C3.42342 11.932 4.2211 12.4306 4.2211 12.4306C4.2211 12.4306 5.38439 12.8294 6.3815 13.1285C7.37861 13.4277 7.9104 13.0953 7.9104 13.0953C7.9104 13.0953 10.237 11.5664 12.5968 9.9378C14.2586 8.80774 13.8598 9.73838 13.461 10.1372C12.5968 11.0014 11.1676 12.3641 9.97109 13.4609C9.4393 13.9262 9.70519 14.3251 9.93785 14.5245C10.6142 15.0968 12.2067 16.1374 12.9308 16.6104C13.1318 16.7418 13.2659 16.8294 13.2948 16.8511C13.461 16.984 14.3916 17.5823 14.9566 17.4493C15.5216 17.3164 15.5881 16.5519 15.5881 16.5519C15.5881 16.5519 16.0202 13.8265 16.419 11.3337C16.4929 10.8446 16.5667 10.3656 16.6356 9.91901C16.8147 8.75737 16.9601 7.81436 16.9841 7.47827C17.0838 6.34821 15.8873 6.81353 15.8873 6.81353C15.8873 6.81353 13.2948 7.87711 12.5303 8.20948Z" fill="white"/>
</svg>
